CalSansUI-Regular.ufo
<glyph name="exclam" format="2">
  <advance width="235.0"/>
  <unicode hex="0021"/>
  <outline>
    <contour>
      <point x="84.25" y="160.5" type="line"/>
      <point x="151.25" y="160.5" type="line"/>
      <point x="169.0" y="539.5" type="line"/>
      <point x="169.0" y="700.0" type="line"/>
      <point x="66.5" y="700.0" type="line"/>
      <point x="66.5" y="539.5" type="line"/>
    </contour>
    <component base="period"/>
  </outline>
</glyph>
<glyph name="hyphen" format="2">
  <advance width="389.0"/>
  <unicode hex="002D"/>
  <outline>
    <contour>
      <point x="51.5" y="230.25" type="line"/>
      <point x="337.5" y="230.25" type="line"/>
      <point x="337.5" y="321.5" type="line"/>
      <point x="51.5" y="321.5" type="line"/>
    </contour>
  </outline>
</glyph>
<glyph name="slash" format="2">
  <advance width="483.75"/>
  <unicode hex="002F"/>
  <outline>
    <contour>
      <point x="55.25" y="-13.0" type="line"/>
      <point x="147.75" y="-13.0" type="line"/>
      <point x="423.5" y="740.0" type="line"/>
      <point x="329.0" y="740.0" type="line"/>
    </contour>
  </outline>
</glyph>
<glyph name="two" format="2">
  <advance width="584.5"/>
  <unicode hex="0032"/>
  <outline>
    <contour>
      <point x="46.25" y="0.0" type="line"/>
      <point x="515.25" y="0.0" type="line"/>
      <point x="515.25" y="86.25" type="line"/>
      <point x="226.5" y="84.25" type="line"/>
      <point x="226.5" y="87.25" type="line"/>
      <point x="246.5" y="98.25"/>
      <point x="283.5" y="135.75"/>
      <point x="314.0" y="173.0" type="curve" smooth="yes"/>
      <point x="425.5" y="308.75" type="line" smooth="yes"/>
      <point x="485.0" y="379.75"/>
      <point x="509.0" y="436.25"/>
      <point x="509.0" y="500.5" type="curve" smooth="yes"/>
      <point x="509.0" y="608.75"/>
      <point x="421.5" y="713.0"/>
      <point x="280.25" y="713.0" type="curve" smooth="yes"/>
      <point x="142.25" y="713.0"/>
      <point x="46.25" y="614.0"/>
      <point x="46.25" y="470.0" type="curve"/>
      <point x="147.0" y="470.0" type="line"/>
      <point x="147.0" y="570.5"/>
      <point x="204.25" y="622.75"/>
      <point x="278.25" y="622.75" type="curve" smooth="yes"/>
      <point x="353.0" y="622.75"/>
      <point x="406.0" y="570.5"/>
      <point x="406.0" y="493.25" type="curve" smooth="yes"/>
      <point x="406.0" y="442.75"/>
      <point x="376.5" y="388.25"/>
      <point x="325.5" y="331.75" type="curve" smooth="yes"/>
      <point x="46.25" y="16.0" type="line"/>
    </contour>
  </outline>
</glyph>
<glyph name="three" format="2">
  <advance width="565.0"/>
  <unicode hex="0033"/>
  <outline>
    <contour>
      <point x="265.5" y="-13.0" type="curve" smooth="yes"/>
      <point x="402.0" y="-13.0"/>
      <point x="498.25" y="69.75"/>
      <point x="498.25" y="200.75" type="curve" smooth="yes"/>
      <point x="498.25" y="279.5"/>
      <point x="444.5" y="352.25"/>
      <point x="367.5" y="372.0" type="curve"/>
      <point x="367.5" y="376.0" type="line"/>
      <point x="436.5" y="391.25"/>
      <point x="482.25" y="461.0"/>
      <point x="482.25" y="522.25" type="curve" smooth="yes"/>
      <point x="482.25" y="634.0"/>
      <point x="393.5" y="713.0"/>
      <point x="265.0" y="713.0" type="curve" smooth="yes"/>
      <point x="132.5" y="713.0"/>
      <point x="35.75" y="634.0"/>
      <point x="38.75" y="500.0" type="curve"/>
      <point x="135.5" y="500.0" type="line"/>
      <point x="132.5" y="577.5"/>
      <point x="188.0" y="625.0"/>
      <point x="265.5" y="625.0" type="curve" smooth="yes"/>
      <point x="340.0" y="625.0"/>
      <point x="384.75" y="580.25"/>
      <point x="384.75" y="510.75" type="curve" smooth="yes"/>
      <point x="384.75" y="444.75"/>
      <point x="335.75" y="400.5"/>
      <point x="248.5" y="400.5" type="curve" smooth="yes"/>
      <point x="170.25" y="400.5" type="line"/>
      <point x="170.25" y="316.25" type="line"/>
      <point x="246.25" y="317.25" type="line" smooth="yes"/>
      <point x="343.5" y="317.5"/>
      <point x="399.0" y="273.5"/>
      <point x="399.0" y="198.25" type="curve" smooth="yes"/>
      <point x="399.0" y="125.25"/>
      <point x="349.0" y="72.75"/>
      <point x="265.5" y="72.75" type="curve" smooth="yes"/>
      <point x="189.5" y="72.75"/>
      <point x="130.75" y="127.75"/>
      <point x="133.75" y="209.0" type="curve"/>
      <point x="35.0" y="209.0" type="line"/>
      <point x="32.0" y="73.0"/>
      <point x="126.25" y="-13.0"/>
    </contour>
  </outline>
</glyph>
<glyph name="nine" format="2">
  <advance width="576.25"/>
  <unicode hex="0039"/>
  <outline>
    <contour>
      <point x="156.0" y="0.0" type="line"/>
      <point x="271.75" y="0.0" type="line"/>
      <point x="454.5" y="298.25" type="line" smooth="yes"/>
      <point x="491.5" y="358.0"/>
      <point x="521.0" y="423.5"/>
      <point x="521.0" y="485.0" type="curve" smooth="yes"/>
      <point x="521.0" y="617.25"/>
      <point x="423.5" y="713.0"/>
      <point x="281.5" y="713.0" type="curve" smooth="yes"/>
      <point x="141.75" y="713.0"/>
      <point x="43.75" y="617.25"/>
      <point x="43.75" y="482.75" type="curve" smooth="yes"/>
      <point x="43.75" y="320.0"/>
      <point x="187.25" y="228.0"/>
      <point x="327.0" y="284.25" type="curve"/>
      <point x="328.25" y="281.75" type="line"/>
    </contour>
    <contour>
      <point x="276.0" y="345.25" type="curve" smooth="yes"/>
      <point x="202.0" y="345.25"/>
      <point x="143.75" y="407.0"/>
      <point x="143.75" y="485.0" type="curve" smooth="yes"/>
      <point x="143.75" y="568.25"/>
      <point x="204.25" y="624.25"/>
      <point x="281.5" y="624.25" type="curve" smooth="yes"/>
      <point x="360.5" y="624.25"/>
      <point x="419.5" y="568.25"/>
      <point x="419.5" y="482.75" type="curve" smooth="yes"/>
      <point x="419.5" y="407.0"/>
      <point x="363.5" y="345.25"/>
    </contour>
  </outline>
</glyph>
<glyph name="F" format="2">
  <advance width="549.25"/>
  <unicode hex="0046"/>
  <anchor x="130.5" y="0.0" name="bottom"/>
  <anchor x="107.5" y="0.0" name="ogonek"/>
  <anchor x="297.25" y="700.0" name="top"/>
  <outline>
    <contour>
      <point x="81.5" y="0.0" type="line"/>
      <point x="179.5" y="0.0" type="line"/>
      <point x="179.5" y="303.5" type="line"/>
      <point x="477.75" y="303.5" type="line"/>
      <point x="477.75" y="394.25" type="line"/>
      <point x="179.5" y="394.25" type="line"/>
      <point x="179.5" y="609.25" type="line"/>
      <point x="482.75" y="609.25" type="line"/>
      <point x="482.75" y="700.0" type="line"/>
      <point x="81.5" y="700.0" type="line"/>
    </contour>
  </outline>
</glyph>
<glyph name="M" format="2">
  <advance width="929.25"/>
  <unicode hex="004D"/>
  <anchor x="464.75" y="0.0" name="bottom"/>
  <anchor x="751.25" y="0.0" name="ogonek"/>
  <anchor x="466.0" y="700.0" name="top"/>
  <outline>
    <contour>
      <point x="81.5" y="0.0" type="line"/>
      <point x="178.0" y="0.0" type="line"/>
      <point x="178.0" y="352.75" type="line" smooth="yes"/>
      <point x="178.0" y="461.5"/>
      <point x="174.75" y="525.75"/>
      <point x="167.75" y="568.75" type="curve"/>
      <point x="171.75" y="568.75" type="line"/>
      <point x="440.75" y="0.0" type="line"/>
      <point x="489.25" y="0.0" type="line"/>
      <point x="756.75" y="568.75" type="line"/>
      <point x="760.75" y="568.75" type="line"/>
      <point x="754.5" y="529.5"/>
      <point x="751.25" y="463.75"/>
      <point x="751.25" y="352.75" type="curve" smooth="yes"/>
      <point x="751.25" y="0.0" type="line"/>
      <point x="847.75" y="0.0" type="line"/>
      <point x="847.75" y="700.0" type="line"/>
      <point x="722.75" y="700.0" type="line"/>
      <point x="544.25" y="327.25" type="line" smooth="yes"/>
      <point x="500.5" y="235.5"/>
      <point x="477.25" y="179.25"/>
      <point x="469.25" y="145.25" type="curve"/>
      <point x="465.25" y="145.25" type="line"/>
      <point x="457.25" y="180.0"/>
      <point x="432.25" y="236.25"/>
      <point x="389.25" y="327.25" type="curve" smooth="yes"/>
      <point x="212.5" y="700.0" type="line"/>
      <point x="81.5" y="700.0" type="line"/>
    </contour>
  </outline>
</glyph>
<glyph name="O" format="2">
  <advance width="782.0"/>
  <unicode hex="004F"/>
  <anchor x="390.0" y="0.0" name="bottom"/>
  <anchor x="383.0" y="338.0" name="center"/>
  <anchor x="487.0" y="0.0" name="ogonek"/>
  <anchor x="390.0" y="700.0" name="top"/>
  <anchor x="596.25" y="700.0" name="topright"/>
  <outline>
    <contour>
      <point x="391.0" y="-13.0" type="curve" smooth="yes"/>
      <point x="596.25" y="-13.0"/>
      <point x="740.75" y="148.0"/>
      <point x="740.75" y="349.75" type="curve" smooth="yes"/>
      <point x="740.75" y="553.25"/>
      <point x="596.25" y="713.0"/>
      <point x="391.0" y="713.0" type="curve" smooth="yes"/>
      <point x="185.75" y="713.0"/>
      <point x="41.25" y="551.75"/>
      <point x="41.25" y="349.0" type="curve" smooth="yes"/>
      <point x="41.25" y="146.5"/>
      <point x="185.75" y="-13.0"/>
    </contour>
    <contour>
      <point x="391.0" y="78.5" type="curve" smooth="yes"/>
      <point x="243.5" y="78.5"/>
      <point x="140.0" y="184.0"/>
      <point x="140.0" y="349.0" type="curve" smooth="yes"/>
      <point x="140.0" y="514.0"/>
      <point x="243.5" y="621.5"/>
      <point x="391.0" y="621.5" type="curve" smooth="yes"/>
      <point x="539.0" y="621.5"/>
      <point x="642.0" y="514.75"/>
      <point x="642.0" y="349.75" type="curve" smooth="yes"/>
      <point x="642.0" y="184.75"/>
      <point x="539.0" y="78.5"/>
    </contour>
  </outline>
</glyph>
<glyph name="T" format="2">
  <advance width="600.75"/>
  <unicode hex="0054"/>
  <anchor x="300.75" y="0.0" name="bottom"/>
  <anchor x="300.75" y="323.0" name="center"/>
  <anchor x="325.0" y="0.0" name="ogonek"/>
  <anchor x="300.75" y="700.0" name="top"/>
  <outline>
    <contour>
      <point x="252.5" y="0.0" type="line"/>
      <point x="349.0" y="0.0" type="line"/>
      <point x="349.0" y="654.5" type="line"/>
      <point x="252.5" y="654.5" type="line"/>
    </contour>
    <contour>
      <point x="46.5" y="609.25" type="line"/>
      <point x="554.25" y="609.25" type="line"/>
      <point x="554.25" y="700.0" type="line"/>
      <point x="46.5" y="700.0" type="line"/>
    </contour>
  </outline>
</glyph>
<glyph name="V" format="2">
  <advance width="699.0"/>
  <unicode hex="0056"/>
  <anchor x="352.25" y="0.0" name="bottom"/>
  <anchor x="392.5" y="0.0" name="ogonek"/>
  <anchor x="352.25" y="700.0" name="top"/>
  <outline>
    <contour>
      <point x="307.75" y="0.0" type="line"/>
      <point x="392.5" y="0.0" type="line"/>
      <point x="684.5" y="700.0" type="line"/>
      <point x="571.25" y="700.0" type="line"/>
      <point x="384.25" y="218.25" type="line" smooth="yes"/>
      <point x="369.75" y="180.5"/>
      <point x="360.25" y="151.75"/>
      <point x="353.25" y="125.25" type="curve"/>
      <point x="347.5" y="125.25" type="line"/>
      <point x="340.5" y="151.75"/>
      <point x="330.0" y="182.75"/>
      <point x="316.25" y="218.25" type="curve" smooth="yes"/>
      <point x="129.25" y="700.0" type="line"/>
      <point x="14.5" y="700.0" type="line"/>
    </contour>
  </outline>
</glyph>
<glyph name="a" format="2">
  <advance width="537.0"/>
  <unicode hex="0061"/>
  <anchor x="255.75" y="0.0" name="bottom"/>
  <anchor x="379.25" y="0.0" name="ogonek"/>
  <anchor x="259.75" y="493.75" name="top"/>
  <outline>
    <contour>
      <point x="211.75" y="-12.75" type="curve" smooth="yes"/>
      <point x="308.5" y="-12.75"/>
      <point x="353.5" y="35.25"/>
      <point x="374.75" y="71.75" type="curve"/>
      <point x="380.75" y="71.75" type="line"/>
      <point x="380.75" y="0.0" type="line"/>
      <point x="470.5" y="0.0" type="line"/>
      <point x="470.5" y="322.25" type="line" smooth="yes"/>
      <point x="470.5" y="437.5"/>
      <point x="371.75" y="506.75"/>
      <point x="261.75" y="506.75" type="curve" smooth="yes"/>
      <point x="168.25" y="506.75"/>
      <point x="107.0" y="476.25"/>
      <point x="50.75" y="415.25" type="curve"/>
      <point x="113.5" y="352.0" type="line"/>
      <point x="153.0" y="396.5"/>
      <point x="198.75" y="420.5"/>
      <point x="259.75" y="420.5" type="curve" smooth="yes"/>
      <point x="323.0" y="420.5"/>
      <point x="376.75" y="386.75"/>
      <point x="376.75" y="325.25" type="curve" smooth="yes"/>
      <point x="376.75" y="282.0" type="line"/>
      <point x="394.5" y="299.5" type="line"/>
      <point x="281.5" y="292.25" type="line" smooth="yes"/>
      <point x="127.25" y="282.5"/>
      <point x="46.5" y="229.5"/>
      <point x="46.5" y="132.75" type="curve" smooth="yes"/>
      <point x="46.5" y="49.75"/>
      <point x="117.25" y="-12.75"/>
    </contour>
    <contour>
      <point x="233.75" y="66.75" type="curve" smooth="yes"/>
      <point x="171.75" y="66.75"/>
      <point x="138.75" y="92.0"/>
      <point x="138.75" y="138.0" type="curve" smooth="yes"/>
      <point x="138.75" y="189.0"/>
      <point x="194.0" y="210.75"/>
      <point x="289.25" y="217.0" type="curve" smooth="yes"/>
      <point x="393.0" y="224.0" type="line"/>
      <point x="376.75" y="243.25" type="line"/>
      <point x="376.75" y="205.25" type="line" smooth="yes"/>
      <point x="376.75" y="130.75"/>
      <point x="323.75" y="66.75"/>
    </contour>
  </outline>
</glyph>
<glyph name="h" format="2">
  <advance width="570.5"/>
  <unicode hex="0068"/>
  <anchor x="118.5" y="587.25" name="bar"/>
  <anchor x="293.75" y="0.0" name="bottom"/>
  <anchor x="410.25" y="0.0" name="ogonek"/>
  <anchor x="118.5" y="740.0" name="top"/>
  <outline>
    <contour>
      <point x="71.5" y="0.0" type="line"/>
      <point x="165.25" y="0.0" type="line"/>
      <point x="165.25" y="294.75" type="line" smooth="yes"/>
      <point x="165.25" y="373.0"/>
      <point x="216.75" y="421.75"/>
      <point x="297.75" y="421.75" type="curve" smooth="yes"/>
      <point x="368.25" y="421.75"/>
      <point x="410.25" y="373.0"/>
      <point x="410.25" y="294.75" type="curve" smooth="yes"/>
      <point x="410.25" y="0.0" type="line"/>
      <point x="504.0" y="0.0" type="line"/>
      <point x="504.0" y="316.5" type="line" smooth="yes"/>
      <point x="504.0" y="432.0"/>
      <point x="427.0" y="506.75"/>
      <point x="320.25" y="506.75" type="curve" smooth="yes"/>
      <point x="243.75" y="506.75"/>
      <point x="197.25" y="466.75"/>
      <point x="171.25" y="422.25" type="curve"/>
      <point x="165.25" y="422.25" type="line"/>
      <point x="165.25" y="740.0" type="line"/>
      <point x="71.5" y="740.0" type="line"/>
    </contour>
  </outline>
</glyph>
<glyph name="eth" format="2">
  <advance width="584.0"/>
  <unicode hex="00F0"/>
  <outline>
    <contour>
      <point x="399.75" y="465.25" type="curve"/>
      <point x="394.5" y="462.0" type="line"/>
      <point x="357.25" y="496.25"/>
      <point x="313.5" y="505.0"/>
      <point x="276.75" y="505.0" type="curve" smooth="yes"/>
      <point x="144.0" y="505.0"/>
      <point x="37.0" y="392.5"/>
      <point x="37.0" y="239.25" type="curve" smooth="yes"/>
      <point x="37.0" y="98.75"/>
      <point x="136.5" y="-13.0"/>
      <point x="286.5" y="-13.0" type="curve" smooth="yes"/>
      <point x="435.75" y="-13.0"/>
      <point x="547.0" y="90.5"/>
      <point x="547.0" y="253.5" type="curve" smooth="yes"/>
      <point x="547.0" y="444.25"/>
      <point x="406.0" y="680.75"/>
      <point x="224.5" y="825.0" type="curve"/>
      <point x="158.25" y="761.0" type="line"/>
      <point x="269.25" y="669.5"/>
      <point x="329.25" y="600.75"/>
    </contour>
    <contour>
      <point x="289.75" y="73.25" type="curve" smooth="yes"/>
      <point x="193.5" y="73.25"/>
      <point x="130.75" y="147.0"/>
      <point x="130.75" y="246.75" type="curve" smooth="yes"/>
      <point x="130.75" y="347.5"/>
      <point x="198.75" y="420.5"/>
      <point x="289.75" y="420.5" type="curve" smooth="yes"/>
      <point x="386.0" y="420.5"/>
      <point x="449.5" y="346.75"/>
      <point x="449.5" y="246.75" type="curve" smooth="yes"/>
      <point x="449.5" y="145.5"/>
      <point x="386.0" y="73.25"/>
    </contour>
    <contour>
      <point x="162.0" y="541.25" type="line"/>
      <point x="499.0" y="658.75" type="line"/>
      <point x="499.0" y="739.75" type="line"/>
      <point x="336.5" y="682.5" type="line"/>
      <point x="296.5" y="666.5" type="line"/>
      <point x="162.0" y="620.5" type="line"/>
    </contour>
  </outline>
</glyph>
<glyph name="kgreenlandic" format="2">
  <advance width="538.25"/>
  <unicode hex="0138"/>
  <outline>
    <contour>
      <point x="71.5" y="0.0" type="line"/>
      <point x="166.75" y="0.0" type="line"/>
      <point x="166.75" y="249.5" type="line"/>
      <point x="170.25" y="249.5" type="line"/>
      <point x="388.75" y="0.0" type="line"/>
      <point x="511.75" y="0.0" type="line"/>
      <point x="270.5" y="273.25" type="line"/>
      <point x="501.0" y="493.75" type="line"/>
      <point x="371.0" y="493.75" type="line"/>
      <point x="170.25" y="287.0" type="line"/>
      <point x="166.75" y="287.0" type="line"/>
      <point x="166.75" y="493.75" type="line"/>
      <point x="71.5" y="493.75" type="line"/>
    </contour>
  </outline>
</glyph>
<glyph name="brevebelowcomb" format="2">
  <unicode hex="032E"/>
  <anchor x="0.0" y="0.0" name="_bottom"/>
  <outline>
    <contour>
      <point x="0.0" y="-220.0" type="curve" smooth="yes"/>
      <point x="84.75" y="-220.0"/>
      <point x="141.25" y="-158.25"/>
      <point x="141.25" y="-74.75" type="curve"/>
      <point x="69.0" y="-74.75" type="line"/>
      <point x="70.75" y="-119.75"/>
      <point x="49.25" y="-163.25"/>
      <point x="0.0" y="-163.25" type="curve" smooth="yes"/>
      <point x="-47.0" y="-163.25"/>
      <point x="-70.75" y="-119.75"/>
      <point x="-69.0" y="-74.75" type="curve"/>
      <point x="-141.25" y="-74.75" type="line"/>
      <point x="-141.25" y="-158.25"/>
      <point x="-84.5" y="-220.0"/>
    </contour>
  </outline>
</glyph>
<glyph name="colonsign" format="2">
  <advance width="638.5"/>
  <unicode hex="20A1"/>
  <outline>
    <contour>
      <point x="368.75" y="27.0" type="curve" smooth="yes"/>
      <point x="482.0" y="27.0"/>
      <point x="563.0" y="71.5"/>
      <point x="617.25" y="137.0" type="curve"/>
      <point x="550.25" y="193.0" type="line"/>
      <point x="492.5" y="127.75"/>
      <point x="451.5" y="112.5"/>
      <point x="373.25" y="112.5" type="curve" smooth="yes"/>
      <point x="216.5" y="112.5"/>
      <point x="138.5" y="242.5"/>
      <point x="138.5" y="353.25" type="curve" smooth="yes"/>
      <point x="138.5" y="442.0"/>
      <point x="199.0" y="587.5"/>
      <point x="369.5" y="587.5" type="curve" smooth="yes"/>
      <point x="442.0" y="587.5"/>
      <point x="498.5" y="566.5"/>
      <point x="545.0" y="510.0" type="curve"/>
      <point x="612.0" y="570.25" type="line"/>
      <point x="544.0" y="642.75"/>
      <point x="472.75" y="673.0"/>
      <point x="368.75" y="673.0" type="curve" smooth="yes"/>
      <point x="170.25" y="673.0"/>
      <point x="41.25" y="522.5"/>
      <point x="41.25" y="349.0" type="curve" smooth="yes"/>
      <point x="41.25" y="176.5"/>
      <point x="178.25" y="27.0"/>
    </contour>
    <contour>
      <point x="425.5" y="-69.0" type="line"/>
      <point x="513.5" y="775.0" type="line"/>
      <point x="438.25" y="775.0" type="line"/>
      <point x="350.25" y="-69.0" type="line"/>
    </contour>
    <contour>
      <point x="274.25" y="-69.0" type="line"/>
      <point x="362.25" y="775.0" type="line"/>
      <point x="287.0" y="775.0" type="line"/>
      <point x="199.0" y="-69.0" type="line"/>
    </contour>
  </outline>
</glyph>
<glyph name="manat" format="2">
  <advance width="521.25"/>
  <unicode hex="20BC"/>
  <outline>
    <contour>
      <point x="49.25" y="30.0" type="line"/>
      <point x="142.25" y="30.0" type="line"/>
      <point x="142.25" y="201.25" type="line" smooth="yes"/>
      <point x="142.25" y="295.0"/>
      <point x="184.0" y="341.5"/>
      <point x="261.25" y="341.5" type="curve" smooth="yes"/>
      <point x="339.25" y="341.5"/>
      <point x="378.25" y="295.0"/>
      <point x="378.25" y="201.25" type="curve" smooth="yes"/>
      <point x="378.25" y="30.0" type="line"/>
      <point x="472.0" y="30.0" type="line"/>
      <point x="472.0" y="209.5" type="line" smooth="yes"/>
      <point x="472.0" y="347.25"/>
      <point x="392.75" y="425.75"/>
      <point x="260.75" y="425.75" type="curve" smooth="yes"/>
      <point x="129.25" y="425.75"/>
      <point x="49.25" y="347.25"/>
      <point x="49.25" y="209.5" type="curve" smooth="yes"/>
    </contour>
    <contour>
      <point x="224.25" y="30.0" type="line"/>
      <point x="299.5" y="30.0" type="line"/>
      <point x="299.5" y="493.75" type="line"/>
      <point x="224.25" y="493.75" type="line"/>
    </contour>
  </outline>
</glyph>
<glyph name="trademark" format="2">
  <advance width="846.75"/>
  <unicode hex="2122"/>
  <outline>
    <contour>
      <point x="368.0" y="315.0" type="line"/>
      <point x="433.0" y="315.0" type="line"/>
      <point x="433.0" y="491.5" type="line" smooth="yes"/>
      <point x="433.0" y="576.0"/>
      <point x="433.0" y="607.75"/>
      <point x="426.0" y="672.5" type="curve"/>
      <point x="401.75" y="671.5" type="line"/>
      <point x="566.5" y="315.0" type="line"/>
      <point x="602.25" y="315.0" type="line"/>
      <point x="769.25" y="673.75" type="line"/>
      <point x="741.75" y="647.75" type="line"/>
      <point x="735.0" y="587.5"/>
      <point x="733.75" y="558.0"/>
      <point x="733.75" y="478.75" type="curve" smooth="yes"/>
      <point x="733.75" y="315.0" type="line"/>
      <point x="801.75" y="315.0" type="line"/>
      <point x="801.75" y="700.0" type="line"/>
      <point x="712.75" y="700.0" type="line"/>
      <point x="625.25" y="513.5" type="line" smooth="yes"/>
      <point x="579.25" y="416.75"/>
      <point x="579.25" y="394.75"/>
      <point x="571.75" y="363.25" type="curve"/>
      <point x="600.0" y="363.25" type="line"/>
      <point x="593.5" y="394.75"/>
      <point x="591.5" y="415.75"/>
      <point x="545.0" y="513.5" type="curve" smooth="yes"/>
      <point x="458.5" y="700.0" type="line"/>
      <point x="368.0" y="700.0" type="line"/>
    </contour>
    <contour>
      <point x="138.25" y="315.0" type="line"/>
      <point x="207.75" y="315.0" type="line"/>
      <point x="207.75" y="666.25" type="line"/>
      <point x="179.75" y="637.0" type="line"/>
      <point x="321.0" y="637.0" type="line"/>
      <point x="321.0" y="700.0" type="line"/>
      <point x="25.0" y="700.0" type="line"/>
      <point x="25.0" y="637.0" type="line"/>
      <point x="166.25" y="637.0" type="line"/>
      <point x="138.25" y="666.25" type="line"/>
    </contour>
  </outline>
</glyph>
<glyph name="radical" format="2">
  <advance width="618.0"/>
  <unicode hex="221A"/>
  <outline>
    <contour>
      <point x="164.5" y="-220.0" type="line"/>
      <point x="253.5" y="-220.0" type="line"/>
      <point x="435.25" y="629.0" type="line"/>
      <point x="580.75" y="629.0" type="line"/>
      <point x="580.75" y="700.0" type="line"/>
      <point x="369.0" y="700.0" type="line"/>
      <point x="227.25" y="-15.75" type="line" smooth="yes"/>
      <point x="218.75" y="-60.0"/>
      <point x="211.75" y="-104.25"/>
      <point x="208.75" y="-146.5" type="curve"/>
      <point x="206.25" y="-146.5" type="line"/>
      <point x="202.75" y="-102.5"/>
      <point x="192.75" y="-60.75"/>
      <point x="182.5" y="-14.75" type="curve" smooth="yes"/>
      <point x="138.5" y="176.0" type="line"/>
      <point x="57.5" y="176.0" type="line"/>
    </contour>
  </outline>
</glyph>
<glyph name="upWhiteSmallTriangle" format="2">
  <advance width="314.5"/>
  <unicode hex="25B5"/>
  <outline>
    <contour>
      <point x="45.0" y="276.25" type="line"/>
      <point x="269.5" y="276.25" type="line"/>
      <point x="156.75" y="471.0" type="line"/>
    </contour>
    <contour>
      <point x="115.75" y="317.25" type="line"/>
      <point x="156.75" y="390.75" type="line"/>
      <point x="197.75" y="317.25" type="line"/>
    </contour>
  </outline>
</glyph>
<glyph name="ae.ss01" format="2">
  <advance width="981.25"/>
  <anchor x="506.25" y="0.0" name="bottom"/>
  <anchor x="457.25" y="0.0" name="ogonek"/>
  <anchor x="506.25" y="493.75" name="top"/>
  <outline>
    <contour>
      <point x="716.25" y="-13.0" type="curve" smooth="yes"/>
      <point x="805.75" y="-13.0"/>
      <point x="880.25" y="20.75"/>
      <point x="925.5" y="78.75" type="curve"/>
      <point x="860.5" y="138.0" type="line"/>
      <point x="827.75" y="93.0"/>
      <point x="778.75" y="72.5"/>
      <point x="715.25" y="72.5" type="curve" smooth="yes"/>
      <point x="643.25" y="72.5"/>
      <point x="554.0" y="134.25"/>
      <point x="550.75" y="234.5" type="curve"/>
      <point x="550.5" y="248.75" type="line"/>
      <point x="548.75" y="366.75"/>
      <point x="643.25" y="424.0"/>
      <point x="709.25" y="424.0" type="curve" smooth="yes"/>
      <point x="808.75" y="424.0"/>
      <point x="862.0" y="353.25"/>
      <point x="858.25" y="250.0" type="curve"/>
      <point x="889.25" y="292.0" type="line"/>
      <point x="506.25" y="292.0" type="line"/>
      <point x="506.25" y="214.5" type="line"/>
      <point x="949.75" y="214.5" type="line"/>
      <point x="952.0" y="223.5"/>
      <point x="952.25" y="238.25"/>
      <point x="952.25" y="250.0" type="curve" smooth="yes"/>
      <point x="952.25" y="401.75"/>
      <point x="861.0" y="506.75"/>
      <point x="720.5" y="506.75" type="curve" smooth="yes"/>
      <point x="594.75" y="506.75"/>
      <point x="518.75" y="398.75"/>
      <point x="518.75" y="246.75" type="curve" smooth="yes"/>
      <point x="518.75" y="96.75"/>
      <point x="592.25" y="-13.0"/>
    </contour>
    <contour>
      <point x="474.75" y="406.5" type="line"/>
      <point x="474.75" y="89.0" type="line"/>
      <point x="564.25" y="89.0" type="line"/>
      <point x="530.75" y="253.75" type="line"/>
      <point x="564.25" y="406.5" type="line"/>
    </contour>
    <component base="a.ss01"/>
  </outline>
</glyph>
<glyph name="comma.ss04" format="2">
  <advance width="221.5"/>
  <outline>
    <contour>
      <point x="76.25" y="123.5" type="line"/>
      <point x="70.5" y="57.75" type="line" smooth="yes"/>
      <point x="60.75" y="-40.5"/>
      <point x="37.25" y="-109.25"/>
      <point x="9.0" y="-162.0" type="curve"/>
      <point x="41.0" y="-181.25" type="line"/>
      <point x="106.0" y="-129.75"/>
      <point x="138.0" y="-54.5"/>
      <point x="158.75" y="57.0" type="curve" smooth="yes"/>
      <point x="169.25" y="114.0" type="line"/>
    </contour>
  </outline>
</glyph>
<glyph name="eight.numr" format="2">
  <advance width="319.5"/>
  <outline>
    <contour>
      <point x="159.75" y="308.0" type="curve" smooth="yes"/>
      <point x="229.25" y="308.0"/>
      <point x="287.0" y="352.5"/>
      <point x="287.0" y="421.5" type="curve" smooth="yes"/>
      <point x="287.0" y="468.0"/>
      <point x="260.0" y="500.0"/>
      <point x="226.75" y="514.25" type="curve"/>
      <point x="226.75" y="516.25" type="line"/>
      <point x="259.0" y="530.5"/>
      <point x="276.75" y="565.25"/>
      <point x="276.75" y="599.75" type="curve" smooth="yes"/>
      <point x="276.75" y="663.25"/>
      <point x="232.0" y="706.25"/>
      <point x="159.75" y="706.25" type="curve" smooth="yes"/>
      <point x="76.5" y="706.25"/>
      <point x="41.5" y="652.75"/>
      <point x="41.5" y="597.5" type="curve" smooth="yes"/>
      <point x="41.5" y="564.0"/>
      <point x="61.25" y="530.5"/>
      <point x="93.0" y="516.25" type="curve"/>
      <point x="93.0" y="514.25" type="line"/>
      <point x="60.5" y="499.75"/>
      <point x="32.5" y="469.0"/>
      <point x="32.5" y="420.75" type="curve" smooth="yes"/>
      <point x="32.5" y="348.25"/>
      <point x="89.75" y="308.0"/>
    </contour>
    <contour>
      <point x="159.75" y="362.0" type="curve" smooth="yes"/>
      <point x="121.0" y="362.0"/>
      <point x="93.25" y="390.75"/>
      <point x="93.25" y="425.5" type="curve" smooth="yes"/>
      <point x="93.25" y="463.0"/>
      <point x="122.25" y="487.5"/>
      <point x="159.75" y="487.5" type="curve" smooth="yes"/>
      <point x="201.75" y="487.5"/>
      <point x="225.0" y="460.75"/>
      <point x="225.0" y="424.75" type="curve" smooth="yes"/>
      <point x="225.0" y="389.25"/>
      <point x="197.5" y="362.0"/>
    </contour>
    <contour>
      <point x="160.5" y="540.0" type="curve" smooth="yes"/>
      <point x="124.5" y="540.0"/>
      <point x="102.25" y="569.25"/>
      <point x="102.25" y="596.75" type="curve" smooth="yes"/>
      <point x="102.25" y="630.75"/>
      <point x="127.5" y="652.0"/>
      <point x="159.75" y="652.0" type="curve" smooth="yes"/>
      <point x="189.75" y="652.0"/>
      <point x="216.5" y="631.5"/>
      <point x="216.5" y="596.0" type="curve" smooth="yes"/>
      <point x="216.5" y="564.75"/>
      <point x="198.5" y="540.0"/>
    </contour>
  </outline>
</glyph>
<glyph name="euro.tf" format="2">
  <advance width="596.0"/>
  <outline>
    <contour>
      <point x="370.5" y="19.5" type="curve" smooth="yes"/>
      <point x="462.5" y="19.5"/>
      <point x="541.75" y="55.0"/>
      <point x="596.25" y="112.25" type="curve"/>
      <point x="530.75" y="171.5" type="line"/>
      <point x="488.75" y="128.75"/>
      <point x="435.75" y="106.0"/>
      <point x="375.0" y="106.0" type="curve" smooth="yes"/>
      <point x="284.25" y="106.0"/>
      <point x="188.0" y="159.75"/>
      <point x="168.75" y="285.75" type="curve" smooth="yes"/>
      <point x="166.0" y="305.75" type="line"/>
      <point x="161.5" y="343.75"/>
      <point x="160.5" y="359.0"/>
      <point x="165.0" y="397.0" type="curve"/>
      <point x="168.75" y="418.0" type="line" smooth="yes"/>
      <point x="189.0" y="549.25"/>
      <point x="284.25" y="594.0"/>
      <point x="371.25" y="594.0" type="curve" smooth="yes"/>
      <point x="434.5" y="594.0"/>
      <point x="473.5" y="578.25"/>
      <point x="529.75" y="532.0" type="curve"/>
      <point x="585.0" y="600.25" type="line"/>
      <point x="524.25" y="655.5"/>
      <point x="465.25" y="680.5"/>
      <point x="370.5" y="680.5" type="curve" smooth="yes"/>
      <point x="177.5" y="680.5"/>
      <point x="63.75" y="532.5"/>
      <point x="63.75" y="349.0" type="curve" smooth="yes"/>
      <point x="63.75" y="166.5"/>
      <point x="185.5" y="19.5"/>
    </contour>
    <contour>
      <point x="-30.25" y="241.5" type="line"/>
      <point x="376.25" y="241.5" type="line"/>
      <point x="418.75" y="316.75" type="line"/>
      <point x="21.0" y="316.75" type="line"/>
    </contour>
    <contour>
      <point x="-33.5" y="383.25" type="line"/>
      <point x="456.75" y="383.25" type="line"/>
      <point x="502.75" y="458.5" type="line"/>
      <point x="18.75" y="458.5" type="line"/>
    </contour>
  </outline>
</glyph>
<glyph name="f_l.ss11" format="2">
  <advance width="618.0"/>
  <anchor x="374.75" y="0.0" name="caret_1"/>
  <outline>
    <contour>
      <point x="116.0" y="0.0" type="line"/>
      <point x="209.75" y="0.0" type="line"/>
      <point x="209.75" y="541.25" type="line" smooth="yes"/>
      <point x="209.75" y="618.5"/>
      <point x="255.0" y="666.5"/>
      <point x="331.75" y="666.5" type="curve" smooth="yes"/>
      <point x="404.5" y="666.5"/>
      <point x="452.75" y="619.0"/>
      <point x="452.75" y="543.0" type="curve" smooth="yes"/>
      <point x="452.75" y="0.0" type="line"/>
      <point x="546.5" y="0.0" type="line"/>
      <point x="546.5" y="548.5" type="line" smooth="yes"/>
      <point x="546.5" y="667.5"/>
      <point x="455.25" y="753.0"/>
      <point x="331.75" y="753.0" type="curve" smooth="yes"/>
      <point x="204.25" y="753.0"/>
      <point x="116.0" y="667.5"/>
      <point x="116.0" y="548.5" type="curve" smooth="yes"/>
    </contour>
    <contour>
      <point x="17.75" y="409.75" type="line"/>
      <point x="375.5" y="409.75" type="line"/>
      <point x="375.5" y="493.75" type="line"/>
      <point x="17.75" y="493.75" type="line"/>
    </contour>
  </outline>
</glyph>
<glyph name="horn.alt" format="2">
  <advance width="300.0"/>
  <anchor x="106.5" y="493.75" name="_topright"/>
  <outline>
    <contour>
      <point x="71.25" y="434.25" type="line"/>
      <point x="143.75" y="434.25"/>
      <point x="211.75" y="467.75"/>
      <point x="211.75" y="550.5" type="curve" smooth="yes"/>
      <point x="211.75" y="570.75"/>
      <point x="207.5" y="591.5"/>
      <point x="201.0" y="606.5" type="curve"/>
      <point x="122.25" y="606.5" type="line"/>
      <point x="128.25" y="589.5"/>
      <point x="131.25" y="574.5"/>
      <point x="131.25" y="563.25" type="curve" smooth="yes"/>
      <point x="132.25" y="527.25"/>
      <point x="117.25" y="493.75"/>
      <point x="26.0" y="493.75" type="curve"/>
    </contour>
  </outline>
</glyph>
<glyph name="horn.alt_case" format="2">
  <advance width="464.25"/>
  <anchor x="163.5" y="700.0" name="_topright"/>
  <outline>
    <contour>
      <point x="133.25" y="625.25" type="line"/>
      <point x="239.0" y="617.5"/>
      <point x="302.5" y="666.25"/>
      <point x="302.5" y="746.0" type="curve" smooth="yes"/>
      <point x="302.5" y="777.5"/>
      <point x="297.5" y="796.0"/>
      <point x="292.5" y="811.0" type="curve"/>
      <point x="206.5" y="811.0" type="line"/>
      <point x="213.25" y="794.0"/>
      <point x="217.75" y="776.0"/>
      <point x="217.75" y="757.25" type="curve" smooth="yes"/>
      <point x="218.0" y="724.25"/>
      <point x="200.75" y="700.0"/>
      <point x="146.75" y="700.0" type="curve"/>
    </contour>
  </outline>
</glyph>
<glyph name="horncomb.case" format="2">
  <anchor x="180.0" y="700.0" name="_topright"/>
  <outline>
    <contour>
      <point x="187.25" y="617.5" type="curve" smooth="yes"/>
      <point x="255.5" y="617.5"/>
      <point x="319.0" y="666.25"/>
      <point x="319.0" y="746.0" type="curve" smooth="yes"/>
      <point x="319.0" y="777.5"/>
      <point x="314.0" y="796.0"/>
      <point x="309.0" y="811.0" type="curve"/>
      <point x="223.0" y="811.0" type="line"/>
      <point x="229.75" y="794.0"/>
      <point x="234.25" y="776.0"/>
      <point x="234.25" y="757.25" type="curve" smooth="yes"/>
      <point x="234.5" y="724.25"/>
      <point x="217.25" y="692.25"/>
      <point x="163.25" y="692.25" type="curve" smooth="yes"/>
      <point x="124.25" y="692.25"/>
      <point x="46.75" y="713.0"/>
      <point x="-25.25" y="713.0" type="curve"/>
      <point x="-28.5" y="638.75" type="line"/>
      <point x="109.75" y="638.75"/>
      <point x="119.75" y="617.5"/>
    </contour>
  </outline>
</glyph>
<glyph name="liraTurkish.tf" format="2">
  <advance width="596.0"/>
  <outline>
    <contour>
      <point x="55.75" y="291.5" type="line"/>
      <point x="519.0" y="387.75" type="line"/>
      <point x="519.0" y="468.0" type="line"/>
      <point x="55.75" y="371.75" type="line"/>
    </contour>
    <contour>
      <point x="55.75" y="423.25" type="line"/>
      <point x="519.0" y="519.5" type="line"/>
      <point x="519.0" y="598.25" type="line"/>
      <point x="55.75" y="503.25" type="line"/>
    </contour>
    <contour>
      <point x="140.25" y="30.0" type="line"/>
      <point x="251.0" y="30.0" type="line" smooth="yes"/>
      <point x="409.5" y="30.0"/>
      <point x="520.5" y="115.0"/>
      <point x="537.0" y="269.75" type="curve" smooth="yes"/>
      <point x="541.75" y="314.25" type="line"/>
      <point x="455.75" y="322.75" type="line"/>
      <point x="451.25" y="281.25" type="line" smooth="yes"/>
      <point x="439.0" y="171.0"/>
      <point x="366.75" y="120.75"/>
      <point x="261.75" y="120.75" type="curve" smooth="yes"/>
      <point x="236.75" y="120.75" type="line"/>
      <point x="236.75" y="670.0" type="line"/>
      <point x="140.25" y="670.0" type="line"/>
    </contour>
  </outline>
</glyph>
<glyph name="one.ss10.numr" format="2">
  <advance width="167.0"/>
  <outline>
    <contour>
      <point x="56.75" y="324.75" type="line"/>
      <point x="117.0" y="324.75" type="line"/>
      <point x="117.0" y="699.25" type="line"/>
      <point x="6.0" y="700.0" type="line"/>
      <point x="6.0" y="642.0" type="line"/>
      <point x="56.75" y="641.25" type="line"/>
      <point x="56.75" y="640.25" type="line"/>
    </contour>
  </outline>
</glyph>
